
<svg
      xmlns="http://www.w3.org/2000/svg"
      width="32"
      height="32"
      viewBox="0 0 32 32"
      class="w-10 h-10 stroke-light stroke-1"
    >
      <g
        fill="#3b3c3d"
        fill-rule="evenodd"
        stroke-linecap="round"
        stroke-linejoin="round"
        color="#fff"
        font-family="sans-serif"
      >
        <path
          d="M864.927 1907.531a.5.5 0 00-.426.24l-7 11.5a.5.5 0 00.425.76h6.208l-5.159 10.786a.5.5 0 00.793.58l15.501-14.5a.5.5 0 00-.342-.866h-6.035l5.443-7.71a.5.5 0 00-.408-.79z"
          overflow="visible"
          transform="translate(-850.428 -1903.531)"
          style="
            line-height: normal;
            text-indent: 0px;
            text-align: start;
            text-decoration-line: none;
            text-decoration-style: solid;
            text-decoration-color: rgb(255, 255, 255);
            text-transform: none;
            isolation: auto;
            mix-blend-mode: normal;
          "
        ></path>
        <path
          fill="#FFC220"
          d="M865.208 1908.531h7.756l-5.445 7.713a.5.5 0 00.408.787h5.736l-12.641 11.825 4.356-9.108a.5.5 0 00-.451-.717h-6.11z"
          overflow="visible"
          transform="translate(-850.428 -1903.531)"
          style="
            line-height: normal;
            text-indent: 0px;
            text-align: start;
            text-decoration-line: none;
            text-decoration-style: solid;
            text-decoration-color: rgb(255, 255, 255);
            text-transform: none;
            isolation: auto;
            mix-blend-mode: normal;
          "
        ></path>
      </g>
    </svg>
